<?xml version="1.0" encoding="UTF-8" ?>
<svg version="1.1" width="128" height="128" xmlns="http://www.w3.org/2000/svg" shape-rendering="crispEdges">
<rect x="48" y="24" width="4" height="4" fill="#FFF7EF" />
<rect x="52" y="24" width="4" height="4" fill="#FFF7EF" />
<rect x="56" y="24" width="4" height="4" fill="#FFF7EF" />
<rect x="60" y="24" width="4" height="4" fill="#FFF7EF" />
<rect x="44" y="28" width="4" height="4" fill="#FFF7EF" />
<rect x="48" y="28" width="4" height="4" fill="#282018" />
<rect x="52" y="28" width="4" height="4" fill="#282018" />
<rect x="56" y="28" width="4" height="4" fill="#282018" />
<rect x="60" y="28" width="4" height="4" fill="#282018" />
<rect x="64" y="28" width="4" height="4" fill="#FFF7EF" />
<rect x="40" y="32" width="4" height="4" fill="#FFF7EF" />
<rect x="44" y="32" width="4" height="4" fill="#282018" />
<rect x="48" y="32" width="4" height="4" fill="#282018" />
<rect x="52" y="32" width="4" height="4" fill="#282018" />
<rect x="56" y="32" width="4" height="4" fill="#282018" />
<rect x="60" y="32" width="4" height="4" fill="#282018" />
<rect x="64" y="32" width="4" height="4" fill="#282018" />
<rect x="68" y="32" width="4" height="4" fill="#FFF7EF" />
<rect x="36" y="36" width="4" height="4" fill="#FFF7EF" />
<rect x="40" y="36" width="4" height="4" fill="#282018" />
<rect x="44" y="36" width="4" height="4" fill="#282018" />
<rect x="48" y="36" width="4" height="4" fill="#282018" />
<rect x="52" y="36" width="4" height="4" fill="#282018" />
<rect x="56" y="36" width="4" height="4" fill="#282018" />
<rect x="60" y="36" width="4" height="4" fill="#282018" />
<rect x="64" y="36" width="4" height="4" fill="#282018" />
<rect x="68" y="36" width="4" height="4" fill="#282018" />
<rect x="72" y="36" width="4" height="4" fill="#FFF7EF" />
<rect x="32" y="40" width="4" height="4" fill="#FFF7EF" />
<rect x="36" y="40" width="4" height="4" fill="#282018" />
<rect x="40" y="40" width="4" height="4" fill="#282018" />
<rect x="44" y="40" width="4" height="4" fill="#282018" />
<rect x="48" y="40" width="4" height="4" fill="#282018" />
<rect x="52" y="40" width="4" height="4" fill="#282018" />
<rect x="56" y="40" width="4" height="4" fill="#282018" />
<rect x="60" y="40" width="4" height="4" fill="#282018" />
<rect x="64" y="40" width="4" height="4" fill="#282018" />
<rect x="68" y="40" width="4" height="4" fill="#282018" />
<rect x="72" y="40" width="4" height="4" fill="#282018" />
<rect x="76" y="40" width="4" height="4" fill="#FFF7EF" />
<rect x="32" y="44" width="4" height="4" fill="#FFF7EF" />
<rect x="36" y="44" width="4" height="4" fill="#282018" />
<rect x="40" y="44" width="4" height="4" fill="#282018" />
<rect x="44" y="44" width="4" height="4" fill="#282018" />
<rect x="48" y="44" width="4" height="4" fill="#282018" />
<rect x="52" y="44" width="4" height="4" fill="#FFF7EF" />
<rect x="56" y="44" width="4" height="4" fill="#FFF7EF" />
<rect x="60" y="44" width="4" height="4" fill="#282018" />
<rect x="64" y="44" width="4" height="4" fill="#282018" />
<rect x="68" y="44" width="4" height="4" fill="#282018" />
<rect x="72" y="44" width="4" height="4" fill="#282018" />
<rect x="76" y="44" width="4" height="4" fill="#FFF7EF" />
<rect x="32" y="48" width="4" height="4" fill="#FFF7EF" />
<rect x="36" y="48" width="4" height="4" fill="#282018" />
<rect x="40" y="48" width="4" height="4" fill="#282018" />
<rect x="44" y="48" width="4" height="4" fill="#282018" />
<rect x="48" y="48" width="4" height="4" fill="#282018" />
<rect x="52" y="48" width="4" height="4" fill="#FFF7EF" />
<rect x="56" y="48" width="4" height="4" fill="#FFF7EF" />
<rect x="60" y="48" width="4" height="4" fill="#282018" />
<rect x="64" y="48" width="4" height="4" fill="#282018" />
<rect x="68" y="48" width="4" height="4" fill="#282018" />
<rect x="72" y="48" width="4" height="4" fill="#282018" />
<rect x="76" y="48" width="4" height="4" fill="#FFF7EF" />
<rect x="32" y="52" width="4" height="4" fill="#FFF7EF" />
<rect x="36" y="52" width="4" height="4" fill="#282018" />
<rect x="40" y="52" width="4" height="4" fill="#282018" />
<rect x="44" y="52" width="4" height="4" fill="#282018" />
<rect x="48" y="52" width="4" height="4" fill="#282018" />
<rect x="52" y="52" width="4" height="4" fill="#FFF7EF" />
<rect x="56" y="52" width="4" height="4" fill="#FFF7EF" />
<rect x="60" y="52" width="4" height="4" fill="#282018" />
<rect x="64" y="52" width="4" height="4" fill="#282018" />
<rect x="68" y="52" width="4" height="4" fill="#282018" />
<rect x="72" y="52" width="4" height="4" fill="#282018" />
<rect x="76" y="52" width="4" height="4" fill="#FFF7EF" />
<rect x="36" y="56" width="4" height="4" fill="#FFF7EF" />
<rect x="40" y="56" width="4" height="4" fill="#282018" />
<rect x="44" y="56" width="4" height="4" fill="#282018" />
<rect x="48" y="56" width="4" height="4" fill="#FFF7EF" />
<rect x="52" y="56" width="4" height="4" fill="#FFF7EF" />
<rect x="56" y="56" width="4" height="4" fill="#282018" />
<rect x="60" y="56" width="4" height="4" fill="#282018" />
<rect x="64" y="56" width="4" height="4" fill="#282018" />
<rect x="68" y="56" width="4" height="4" fill="#282018" />
<rect x="72" y="56" width="4" height="4" fill="#282018" />
<rect x="76" y="56" width="4" height="4" fill="#FFF7EF" />
<rect x="40" y="60" width="4" height="4" fill="#FFF7EF" />
<rect x="44" y="60" width="4" height="4" fill="#FFF7EF" />
<rect x="48" y="60" width="4" height="4" fill="#FFF7EF" />
<rect x="52" y="60" width="4" height="4" fill="#282018" />
<rect x="56" y="60" width="4" height="4" fill="#282018" />
<rect x="60" y="60" width="4" height="4" fill="#282018" />
<rect x="64" y="60" width="4" height="4" fill="#282018" />
<rect x="68" y="60" width="4" height="4" fill="#282018" />
<rect x="72" y="60" width="4" height="4" fill="#FFF7EF" />
<rect x="44" y="64" width="4" height="4" fill="#FFF7EF" />
<rect x="48" y="64" width="4" height="4" fill="#282018" />
<rect x="52" y="64" width="4" height="4" fill="#282018" />
<rect x="56" y="64" width="4" height="4" fill="#282018" />
<rect x="60" y="64" width="4" height="4" fill="#282018" />
<rect x="64" y="64" width="4" height="4" fill="#282018" />
<rect x="68" y="64" width="4" height="4" fill="#FFF7EF" />
<rect x="44" y="68" width="4" height="4" fill="#FFF7EF" />
<rect x="48" y="68" width="4" height="4" fill="#282018" />
<rect x="52" y="68" width="4" height="4" fill="#282018" />
<rect x="56" y="68" width="4" height="4" fill="#282018" />
<rect x="60" y="68" width="4" height="4" fill="#282018" />
<rect x="64" y="68" width="4" height="4" fill="#FFF7EF" />
<rect x="44" y="72" width="4" height="4" fill="#FFF7EF" />
<rect x="48" y="72" width="4" height="4" fill="#282018" />
<rect x="52" y="72" width="4" height="4" fill="#282018" />
<rect x="56" y="72" width="4" height="4" fill="#282018" />
<rect x="60" y="72" width="4" height="4" fill="#282018" />
<rect x="64" y="72" width="4" height="4" fill="#FFF7EF" />
<rect x="44" y="76" width="4" height="4" fill="#FFF7EF" />
<rect x="48" y="76" width="4" height="4" fill="#282018" />
<rect x="52" y="76" width="4" height="4" fill="#282018" />
<rect x="56" y="76" width="4" height="4" fill="#282018" />
<rect x="60" y="76" width="4" height="4" fill="#282018" />
<rect x="64" y="76" width="4" height="4" fill="#FFF7EF" />
<rect x="48" y="80" width="4" height="4" fill="#FFF7EF" />
<rect x="52" y="80" width="4" height="4" fill="#282018" />
<rect x="56" y="80" width="4" height="4" fill="#282018" />
<rect x="60" y="80" width="4" height="4" fill="#FFF7EF" />
<rect x="52" y="84" width="4" height="4" fill="#FFF7EF" />
<rect x="56" y="84" width="4" height="4" fill="#FFF7EF" />
<rect x="48" y="88" width="4" height="4" fill="#FFF7EF" />
<rect x="52" y="88" width="4" height="4" fill="#282018" />
<rect x="56" y="88" width="4" height="4" fill="#282018" />
<rect x="60" y="88" width="4" height="4" fill="#FFF7EF" />
<rect x="44" y="92" width="4" height="4" fill="#FFF7EF" />
<rect x="48" y="92" width="4" height="4" fill="#282018" />
<rect x="52" y="92" width="4" height="4" fill="#282018" />
<rect x="56" y="92" width="4" height="4" fill="#282018" />
<rect x="60" y="92" width="4" height="4" fill="#282018" />
<rect x="64" y="92" width="4" height="4" fill="#FFF7EF" />
<rect x="44" y="96" width="4" height="4" fill="#FFF7EF" />
<rect x="48" y="96" width="4" height="4" fill="#282018" />
<rect x="52" y="96" width="4" height="4" fill="#282018" />
<rect x="56" y="96" width="4" height="4" fill="#282018" />
<rect x="60" y="96" width="4" height="4" fill="#282018" />
<rect x="64" y="96" width="4" height="4" fill="#FFF7EF" />
<rect x="48" y="100" width="4" height="4" fill="#FFF7EF" />
<rect x="52" y="100" width="4" height="4" fill="#282018" />
<rect x="56" y="100" width="4" height="4" fill="#282018" />
<rect x="60" y="100" width="4" height="4" fill="#FFF7EF" />
<rect x="52" y="104" width="4" height="4" fill="#FFF7EF" />
<rect x="56" y="104" width="4" height="4" fill="#FFF7EF" />
</svg>