<?xml version="1.0" encoding="UTF-8" ?>
<svg version="1.1" width="128" height="128" xmlns="http://www.w3.org/2000/svg" shape-rendering="crispEdges">
<rect x="32" y="52" width="4" height="4" fill="#282018" />
<rect x="36" y="52" width="4" height="4" fill="#282018" />
<rect x="88" y="52" width="4" height="4" fill="#282018" />
<rect x="92" y="52" width="4" height="4" fill="#282018" />
<rect x="32" y="56" width="4" height="4" fill="#282018" />
<rect x="36" y="56" width="4" height="4" fill="#792D22" />
<rect x="40" y="56" width="4" height="4" fill="#282018" />
<rect x="44" y="56" width="4" height="4" fill="#282018" />
<rect x="48" y="56" width="4" height="4" fill="#282018" />
<rect x="52" y="56" width="4" height="4" fill="#282018" />
<rect x="72" y="56" width="4" height="4" fill="#282018" />
<rect x="76" y="56" width="4" height="4" fill="#282018" />
<rect x="80" y="56" width="4" height="4" fill="#282018" />
<rect x="84" y="56" width="4" height="4" fill="#282018" />
<rect x="88" y="56" width="4" height="4" fill="#963C2F" />
<rect x="92" y="56" width="4" height="4" fill="#282018" />
<rect x="32" y="60" width="4" height="4" fill="#282018" />
<rect x="36" y="60" width="4" height="4" fill="#792D22" />
<rect x="40" y="60" width="4" height="4" fill="#792D22" />
<rect x="44" y="60" width="4" height="4" fill="#792D22" />
<rect x="48" y="60" width="4" height="4" fill="#792D22" />
<rect x="52" y="60" width="4" height="4" fill="#792D22" />
<rect x="56" y="60" width="4" height="4" fill="#282018" />
<rect x="60" y="60" width="4" height="4" fill="#282018" />
<rect x="64" y="60" width="4" height="4" fill="#282018" />
<rect x="68" y="60" width="4" height="4" fill="#282018" />
<rect x="72" y="60" width="4" height="4" fill="#963C2F" />
<rect x="76" y="60" width="4" height="4" fill="#963C2F" />
<rect x="80" y="60" width="4" height="4" fill="#963C2F" />
<rect x="84" y="60" width="4" height="4" fill="#963C2F" />
<rect x="88" y="60" width="4" height="4" fill="#963C2F" />
<rect x="92" y="60" width="4" height="4" fill="#282018" />
<rect x="32" y="64" width="4" height="4" fill="#282018" />
<rect x="36" y="64" width="4" height="4" fill="#792D22" />
<rect x="40" y="64" width="4" height="4" fill="#792D22" />
<rect x="44" y="64" width="4" height="4" fill="#792D22" />
<rect x="48" y="64" width="4" height="4" fill="#792D22" />
<rect x="52" y="64" width="4" height="4" fill="#792D22" />
<rect x="56" y="64" width="4" height="4" fill="#792D22" />
<rect x="60" y="64" width="4" height="4" fill="#792D22" />
<rect x="64" y="64" width="4" height="4" fill="#963C2F" />
<rect x="68" y="64" width="4" height="4" fill="#963C2F" />
<rect x="72" y="64" width="4" height="4" fill="#963C2F" />
<rect x="76" y="64" width="4" height="4" fill="#963C2F" />
<rect x="80" y="64" width="4" height="4" fill="#963C2F" />
<rect x="84" y="64" width="4" height="4" fill="#963C2F" />
<rect x="88" y="64" width="4" height="4" fill="#963C2F" />
<rect x="92" y="64" width="4" height="4" fill="#282018" />
<rect x="32" y="68" width="4" height="4" fill="#282018" />
<rect x="36" y="68" width="4" height="4" fill="#792D22" />
<rect x="40" y="68" width="4" height="4" fill="#792D22" />
<rect x="44" y="68" width="4" height="4" fill="#792D22" />
<rect x="48" y="68" width="4" height="4" fill="#792D22" />
<rect x="52" y="68" width="4" height="4" fill="#792D22" />
<rect x="56" y="68" width="4" height="4" fill="#792D22" />
<rect x="60" y="68" width="4" height="4" fill="#792D22" />
<rect x="64" y="68" width="4" height="4" fill="#963C2F" />
<rect x="68" y="68" width="4" height="4" fill="#963C2F" />
<rect x="72" y="68" width="4" height="4" fill="#963C2F" />
<rect x="76" y="68" width="4" height="4" fill="#963C2F" />
<rect x="80" y="68" width="4" height="4" fill="#963C2F" />
<rect x="84" y="68" width="4" height="4" fill="#963C2F" />
<rect x="88" y="68" width="4" height="4" fill="#963C2F" />
<rect x="92" y="68" width="4" height="4" fill="#282018" />
<rect x="36" y="72" width="4" height="4" fill="#282018" />
<rect x="40" y="72" width="4" height="4" fill="#792D22" />
<rect x="44" y="72" width="4" height="4" fill="#792D22" />
<rect x="48" y="72" width="4" height="4" fill="#792D22" />
<rect x="52" y="72" width="4" height="4" fill="#792D22" />
<rect x="56" y="72" width="4" height="4" fill="#792D22" />
<rect x="60" y="72" width="4" height="4" fill="#792D22" />
<rect x="64" y="72" width="4" height="4" fill="#963C2F" />
<rect x="68" y="72" width="4" height="4" fill="#963C2F" />
<rect x="72" y="72" width="4" height="4" fill="#963C2F" />
<rect x="76" y="72" width="4" height="4" fill="#963C2F" />
<rect x="80" y="72" width="4" height="4" fill="#963C2F" />
<rect x="84" y="72" width="4" height="4" fill="#963C2F" />
<rect x="88" y="72" width="4" height="4" fill="#282018" />
<rect x="36" y="76" width="4" height="4" fill="#282018" />
<rect x="40" y="76" width="4" height="4" fill="#792D22" />
<rect x="44" y="76" width="4" height="4" fill="#792D22" />
<rect x="48" y="76" width="4" height="4" fill="#792D22" />
<rect x="52" y="76" width="4" height="4" fill="#792D22" />
<rect x="56" y="76" width="4" height="4" fill="#792D22" />
<rect x="60" y="76" width="4" height="4" fill="#792D22" />
<rect x="64" y="76" width="4" height="4" fill="#963C2F" />
<rect x="68" y="76" width="4" height="4" fill="#963C2F" />
<rect x="72" y="76" width="4" height="4" fill="#963C2F" />
<rect x="76" y="76" width="4" height="4" fill="#963C2F" />
<rect x="80" y="76" width="4" height="4" fill="#963C2F" />
<rect x="84" y="76" width="4" height="4" fill="#963C2F" />
<rect x="88" y="76" width="4" height="4" fill="#282018" />
<rect x="40" y="80" width="4" height="4" fill="#282018" />
<rect x="44" y="80" width="4" height="4" fill="#792D22" />
<rect x="48" y="80" width="4" height="4" fill="#792D22" />
<rect x="52" y="80" width="4" height="4" fill="#792D22" />
<rect x="56" y="80" width="4" height="4" fill="#792D22" />
<rect x="60" y="80" width="4" height="4" fill="#792D22" />
<rect x="64" y="80" width="4" height="4" fill="#963C2F" />
<rect x="68" y="80" width="4" height="4" fill="#963C2F" />
<rect x="72" y="80" width="4" height="4" fill="#963C2F" />
<rect x="76" y="80" width="4" height="4" fill="#963C2F" />
<rect x="80" y="80" width="4" height="4" fill="#963C2F" />
<rect x="84" y="80" width="4" height="4" fill="#282018" />
<rect x="40" y="84" width="4" height="4" fill="#282018" />
<rect x="44" y="84" width="4" height="4" fill="#792D22" />
<rect x="48" y="84" width="4" height="4" fill="#792D22" />
<rect x="52" y="84" width="4" height="4" fill="#792D22" />
<rect x="56" y="84" width="4" height="4" fill="#792D22" />
<rect x="60" y="84" width="4" height="4" fill="#792D22" />
<rect x="64" y="84" width="4" height="4" fill="#963C2F" />
<rect x="68" y="84" width="4" height="4" fill="#963C2F" />
<rect x="72" y="84" width="4" height="4" fill="#963C2F" />
<rect x="76" y="84" width="4" height="4" fill="#963C2F" />
<rect x="80" y="84" width="4" height="4" fill="#963C2F" />
<rect x="84" y="84" width="4" height="4" fill="#282018" />
<rect x="44" y="88" width="4" height="4" fill="#282018" />
<rect x="48" y="88" width="4" height="4" fill="#792D22" />
<rect x="52" y="88" width="4" height="4" fill="#792D22" />
<rect x="56" y="88" width="4" height="4" fill="#792D22" />
<rect x="60" y="88" width="4" height="4" fill="#792D22" />
<rect x="64" y="88" width="4" height="4" fill="#963C2F" />
<rect x="68" y="88" width="4" height="4" fill="#963C2F" />
<rect x="72" y="88" width="4" height="4" fill="#963C2F" />
<rect x="76" y="88" width="4" height="4" fill="#963C2F" />
<rect x="80" y="88" width="4" height="4" fill="#282018" />
<rect x="44" y="92" width="4" height="4" fill="#282018" />
<rect x="48" y="92" width="4" height="4" fill="#792D22" />
<rect x="52" y="92" width="4" height="4" fill="#792D22" />
<rect x="56" y="92" width="4" height="4" fill="#792D22" />
<rect x="60" y="92" width="4" height="4" fill="#792D22" />
<rect x="64" y="92" width="4" height="4" fill="#963C2F" />
<rect x="68" y="92" width="4" height="4" fill="#963C2F" />
<rect x="72" y="92" width="4" height="4" fill="#963C2F" />
<rect x="76" y="92" width="4" height="4" fill="#963C2F" />
<rect x="80" y="92" width="4" height="4" fill="#282018" />
<rect x="48" y="96" width="4" height="4" fill="#282018" />
<rect x="52" y="96" width="4" height="4" fill="#792D22" />
<rect x="56" y="96" width="4" height="4" fill="#792D22" />
<rect x="60" y="96" width="4" height="4" fill="#792D22" />
<rect x="64" y="96" width="4" height="4" fill="#963C2F" />
<rect x="68" y="96" width="4" height="4" fill="#963C2F" />
<rect x="72" y="96" width="4" height="4" fill="#963C2F" />
<rect x="76" y="96" width="4" height="4" fill="#282018" />
<rect x="48" y="100" width="4" height="4" fill="#282018" />
<rect x="52" y="100" width="4" height="4" fill="#792D22" />
<rect x="56" y="100" width="4" height="4" fill="#792D22" />
<rect x="60" y="100" width="4" height="4" fill="#792D22" />
<rect x="64" y="100" width="4" height="4" fill="#963C2F" />
<rect x="68" y="100" width="4" height="4" fill="#963C2F" />
<rect x="72" y="100" width="4" height="4" fill="#963C2F" />
<rect x="76" y="100" width="4" height="4" fill="#282018" />
<rect x="52" y="104" width="4" height="4" fill="#282018" />
<rect x="56" y="104" width="4" height="4" fill="#792D22" />
<rect x="60" y="104" width="4" height="4" fill="#792D22" />
<rect x="64" y="104" width="4" height="4" fill="#963C2F" />
<rect x="68" y="104" width="4" height="4" fill="#963C2F" />
<rect x="72" y="104" width="4" height="4" fill="#282018" />
<rect x="52" y="108" width="4" height="4" fill="#282018" />
<rect x="56" y="108" width="4" height="4" fill="#792D22" />
<rect x="60" y="108" width="4" height="4" fill="#792D22" />
<rect x="64" y="108" width="4" height="4" fill="#963C2F" />
<rect x="68" y="108" width="4" height="4" fill="#963C2F" />
<rect x="72" y="108" width="4" height="4" fill="#282018" />
<rect x="56" y="112" width="4" height="4" fill="#282018" />
<rect x="60" y="112" width="4" height="4" fill="#792D22" />
<rect x="64" y="112" width="4" height="4" fill="#963C2F" />
<rect x="68" y="112" width="4" height="4" fill="#282018" />
<rect x="56" y="116" width="4" height="4" fill="#282018" />
<rect x="60" y="116" width="4" height="4" fill="#792D22" />
<rect x="64" y="116" width="4" height="4" fill="#963C2F" />
<rect x="68" y="116" width="4" height="4" fill="#282018" />
<rect x="60" y="120" width="4" height="4" fill="#282018" />
<rect x="64" y="120" width="4" height="4" fill="#282018" />
<rect x="60" y="124" width="4" height="4" fill="#282018" />
<rect x="64" y="124" width="4" height="4" fill="#282018" />
</svg>